<svg width="61" height="60" viewBox="0 0 61 60" fill="none" xmlns="http://www.w3.org/2000/svg">
<path d="M30.5 0C47.3488 0 61 13.4274 61 30C61 46.5726 47.3488 60 30.5 60C13.6512 60 0 46.5726 0 30C0 13.4274 13.6512 0 30.5 0ZM30.5 11.6129C24.523 11.6129 19.6774 16.379 19.6774 22.2581C19.6774 28.1371 24.523 32.9032 30.5 32.9032C36.477 32.9032 41.3226 28.1371 41.3226 22.2581C41.3226 16.379 36.477 11.6129 30.5 11.6129ZM30.5 53.2258C37.7192 53.2258 44.1881 50.0081 48.5171 44.9758C46.205 40.6935 41.6792 37.7419 36.4032 37.7419C36.1081 37.7419 35.8129 37.7903 35.53 37.875C33.9312 38.3831 32.2587 38.7097 30.5 38.7097C28.7413 38.7097 27.0565 38.3831 25.47 37.875C25.1871 37.7903 24.8919 37.7419 24.5968 37.7419C19.3208 37.7419 14.795 40.6935 12.4829 44.9758C16.8119 50.0081 23.2808 53.2258 30.5 53.2258Z" fill="url(#paint0_linear_102_13)"/>
<defs>
<linearGradient id="paint0_linear_102_13" x1="30.5" y1="0" x2="30.5" y2="60" gradientUnits="userSpaceOnUse">
<stop stop-color="#DDF5A9"/>
<stop offset="1" stop-color="#90F5CB"/>
</linearGradient>
</defs>
</svg>
